<svg version="1.1" id="Layer_1" xmlns="http://www.w3.org/2000/svg" xmlns:xlink="http://www.w3.org/1999/xlink" x="0px" y="0px"
	 width="100%" viewBox="0 0 529 771" enable-background="new 0 0 529 771" xml:space="preserve">
<path fill="#F9F9F9" opacity="1.000000" stroke="none" 
	d="
M1.000001,766.000000 
	C1.000000,511.051971 1.000000,256.103973 1.000000,1.077972 
	C177.245377,1.077972 353.490784,1.077972 530.000000,1.077972 
	C530.000000,255.693466 530.000000,510.387024 529.565918,765.729126 
	C528.465942,766.396912 527.800049,766.433044 527.134216,766.433044 
	C353.228668,766.435730 179.323120,766.437073 5.417584,766.418213 
	C3.945042,766.418030 2.472529,766.145386 1.000001,766.000000 
M273.500000,13.100804 
	C185.756271,13.100804 98.012535,13.100804 10.414907,13.100804 
	C10.414907,260.808502 10.414907,507.696259 10.414907,754.573608 
	C180.389954,754.573608 349.963379,754.573608 519.673096,754.573608 
	C519.673096,507.360657 519.673096,260.473419 519.673096,13.100812 
	C437.740295,13.100812 356.120148,13.100812 273.500000,13.100804 
z"/>
<path fill="#151515" opacity="1.000000" stroke="none" 
	d="
M1.000001,766.499023 
	C2.472529,766.145386 3.945042,766.418030 5.417584,766.418213 
	C179.323120,766.437073 353.228668,766.435730 527.134216,766.433044 
	C527.800049,766.433044 528.465942,766.396912 529.565918,766.188843 
	C530.000000,767.998169 530.000000,769.996277 530.000000,771.995605 
	C353.666656,771.996704 177.333328,771.996704 1.000000,771.995117 
	C1.000000,770.328369 1.000000,768.663208 1.000001,766.499023 
z"/>
<path fill="#010101" opacity="1.000000" stroke="none" 
	d="
M274.000000,13.100808 
	C356.120148,13.100812 437.740295,13.100812 519.673096,13.100812 
	C519.673096,260.473419 519.673096,507.360657 519.673096,754.573608 
	C349.963379,754.573608 180.389954,754.573608 10.414907,754.573608 
	C10.414907,507.696259 10.414907,260.808502 10.414907,13.100804 
	C98.012535,13.100804 185.756271,13.100804 274.000000,13.100808 
M394.263580,133.277557 
	C388.106445,123.205421 378.938385,119.255859 367.359253,119.290710 
	C322.869843,119.424622 278.379791,119.344284 233.889984,119.344383 
	C209.895493,119.344444 185.900574,119.258629 161.906631,119.374352 
	C143.458145,119.463318 131.857468,130.673660 131.834290,148.663788 
	C131.744919,217.981125 131.739182,287.298706 131.837738,356.615997 
	C131.863266,374.579193 143.311569,385.837891 161.391373,385.856201 
	C230.542114,385.926300 299.693024,385.936584 368.843719,385.848083 
	C386.522034,385.825470 398.077026,374.341187 398.100067,356.754822 
	C398.190887,287.437500 398.209076,218.119766 397.985748,148.803040 
	C397.969727,143.840637 395.793732,138.885178 394.263580,133.277557 
M160.853424,471.272552 
	C161.799789,469.779907 162.746170,468.287262 163.692551,466.794617 
	C164.038223,466.983368 164.383881,467.172119 164.729553,467.360870 
	C162.904114,482.454071 161.078674,497.547272 159.248703,512.677856 
	C162.099640,512.677856 164.482224,512.677856 166.818329,512.677856 
	C169.364304,491.718750 171.865219,471.130768 174.353653,450.645386 
	C168.392426,448.780609 165.059357,450.815002 162.197433,455.718964 
	C154.880219,468.257233 147.047043,480.494354 139.004013,493.526367 
	C134.130646,480.645752 129.543304,468.561768 124.987961,456.465729 
	C122.286865,449.293335 121.968567,449.102631 113.861824,450.671478 
	C111.364143,471.313507 108.859093,492.016479 106.343468,512.806885 
	C109.219467,512.806885 111.496704,512.806885 113.924232,512.806885 
	C115.832413,497.307098 117.713570,482.026794 119.594734,466.746460 
	C121.243553,468.018372 121.853325,469.466797 122.412895,470.934387 
	C126.026390,480.411682 129.513168,489.940308 133.334839,499.332703 
	C134.080948,501.166412 136.218781,503.817505 137.527390,503.714417 
	C139.490738,503.559662 141.880356,501.687958 143.057037,499.876282 
	C149.035614,490.671722 154.681549,481.251099 160.853424,471.272552 
M103.842056,584.019470 
	C102.143234,597.630005 100.444412,611.240479 98.744347,624.860962 
	C101.990585,624.860962 104.551514,624.860962 107.310081,624.860962 
	C108.414200,616.164185 109.478981,607.777222 110.532967,599.475342 
	C115.835312,597.905273 119.197235,599.496887 121.357635,604.558716 
	C123.439827,609.437378 126.195457,614.027100 128.621719,618.760864 
	C132.316422,625.969360 132.304123,625.975647 141.510666,624.684021 
	C136.696701,615.676208 131.971649,606.834717 127.402771,598.285461 
	C130.682556,596.098206 134.069611,594.489624 136.609451,592.012451 
	C142.185959,586.573547 143.825363,579.663452 141.626877,572.253296 
	C139.664047,565.637451 134.039886,563.016113 127.820946,562.532471 
	C120.758392,561.983215 113.620277,562.405579 106.288658,562.405579 
	C105.472755,569.587708 104.704102,576.354004 103.842056,584.019470 
M257.793304,616.071045 
	C257.470917,618.983215 257.148529,621.895386 256.806427,624.985535 
	C259.850769,624.985535 262.284851,624.985535 264.984314,624.985535 
	C265.388885,621.008667 265.725159,617.220032 266.172241,613.444458 
	C266.622437,609.642944 267.021942,605.824036 267.731354,602.067139 
	C268.887695,595.943359 271.700867,590.695862 277.219910,587.457642 
	C281.555267,584.913940 284.803406,586.733337 285.043610,591.757019 
	C285.177765,594.562683 284.803711,597.406494 284.502686,600.216431 
	C283.624084,608.417236 282.667023,616.609680 281.743622,624.779785 
	C284.778137,624.779785 287.306305,624.779785 289.725372,624.779785 
	C290.047302,622.364746 290.378174,620.392944 290.563202,618.407471 
	C291.427582,609.130859 292.714386,599.862427 292.953888,590.567932 
	C293.172150,582.096863 286.418335,577.839417 278.616547,581.094666 
	C275.945862,582.209045 273.670013,584.342529 271.340668,586.171936 
	C270.149689,587.107300 269.239044,588.399536 268.068878,589.675293 
	C265.068115,581.486145 262.415253,578.775879 256.977112,580.466919 
	C252.289124,581.924622 248.202362,585.315918 244.073135,587.722229 
	C244.265594,580.530640 243.734680,580.028503 237.125137,581.732849 
	C235.430969,596.042969 233.735306,610.365723 232.009827,624.940308 
	C234.931747,624.940308 237.340561,624.940308 240.083786,624.940308 
	C240.767929,618.768494 241.479660,612.831299 242.071457,606.882141 
	C242.753113,600.029663 244.977707,593.759827 250.223282,589.216431 
	C252.059662,587.625916 255.509796,586.571655 257.686462,587.182983 
	C259.061157,587.569092 260.244934,591.535950 260.120514,593.820740 
	C259.731812,600.956360 258.680298,608.055969 257.793304,616.071045 
M263.078522,479.723511 
	C262.810059,476.731598 264.070831,475.517853 267.142181,475.817352 
	C269.603180,476.057281 272.106232,475.865784 274.813751,475.865784 
	C275.128754,473.861267 275.401672,472.124542 275.763000,469.825226 
	C271.855438,469.825226 268.276886,469.825226 264.397308,469.825226 
	C264.985443,464.382355 265.514984,459.481415 266.041656,454.607117 
	C260.363129,453.834747 260.332947,453.844543 259.147552,458.543396 
	C258.415588,461.444885 257.905975,464.421417 256.912354,467.228271 
	C256.537872,468.286194 255.113876,469.645782 254.110977,469.694855 
	C249.001984,469.944550 243.874222,469.810028 238.415863,469.810028 
	C238.923325,464.275482 239.383362,459.258057 239.826813,454.421509 
	C235.157181,453.199066 233.320587,455.065033 232.950195,458.997894 
	C232.826614,460.310059 232.398178,461.595123 232.090347,462.888062 
	C231.192307,466.660034 231.118210,471.084686 225.251526,470.651367 
	C224.707932,470.611206 223.496719,472.610809 223.557007,473.604980 
	C223.605362,474.402557 225.008270,475.337799 226.001923,475.795135 
	C226.953766,476.233154 228.152786,476.134155 229.323898,476.281342 
	C228.231796,485.693420 226.934921,494.758362 226.202255,503.868683 
	C225.639343,510.868073 229.568909,514.638245 236.518906,513.905762 
	C239.666382,513.574097 242.688553,512.053467 246.236496,510.922821 
	C245.216980,508.704010 244.564926,507.284912 243.935165,505.914368 
	C234.362259,508.862213 233.627289,508.192963 234.846588,498.124939 
	C234.986725,496.967682 235.090652,495.806061 235.231354,494.648895 
	C235.985809,488.443634 236.746628,482.239166 237.499161,476.084290 
	C243.743332,476.084290 249.360794,476.084290 255.426773,476.084290 
	C254.321915,485.070038 253.126099,493.777161 252.213242,502.513824 
	C251.346649,510.807434 256.269104,515.479797 264.194916,513.843933 
	C266.863159,513.293213 269.341644,511.823181 272.312469,510.607330 
	C271.311707,508.667603 270.589966,507.268646 269.876495,505.885803 
	C269.016541,506.045044 268.550781,506.157715 268.078308,506.214172 
	C265.955750,506.467804 263.018433,507.649139 261.919739,506.702667 
	C260.636505,505.597168 260.486450,502.588715 260.669617,500.477478 
	C261.244781,493.848267 262.207214,487.252594 263.078522,479.723511 
M419.751923,490.342102 
	C422.616119,483.381104 425.480347,476.420105 428.321442,469.515350 
	C422.281708,467.555969 420.079926,470.239319 418.414154,475.128052 
	C415.458282,483.802856 411.805023,492.240021 408.443573,500.776611 
	C405.846130,491.541321 404.109680,482.475891 402.866425,473.343323 
	C402.305603,469.223755 400.061249,468.224945 396.796997,469.148865 
	C395.428436,469.536224 394.114838,471.373474 393.468781,472.853790 
	C389.374603,482.235168 385.474426,491.701172 381.510254,501.139282 
	C379.454193,492.695587 378.135986,484.381470 377.052612,476.036896 
	C376.030029,468.160095 375.989746,468.036926 368.055634,469.596008 
	C370.576141,483.983978 373.096985,498.373749 375.585541,512.579224 
	C380.978302,514.146423 383.758301,512.483887 385.626526,507.381409 
	C388.753021,498.842377 392.706085,490.605988 396.861145,480.966461 
	C399.005219,492.497711 400.899536,502.685883 402.715546,512.452881 
	C408.551605,514.399719 411.206085,512.230286 412.832916,507.205536 
	C414.621399,501.681396 417.172852,496.404297 419.751923,490.342102 
M424.704895,573.958008 
	C424.272980,577.183655 423.841064,580.409302 423.384857,583.816284 
	C411.821289,577.701172 403.501343,580.006958 396.805847,590.866638 
	C392.471619,597.896423 390.717346,605.526978 391.660675,613.774170 
	C392.217468,618.641968 393.664673,623.041138 398.554230,625.078613 
	C403.768738,627.251526 408.667175,626.104614 413.025970,622.641846 
	C414.888367,621.162292 416.636810,619.539368 419.084290,617.421631 
	C419.084290,620.450317 419.084290,622.530457 419.084290,624.905518 
	C421.678619,624.905518 423.930969,624.905518 426.547180,624.905518 
	C429.125214,603.632385 431.691162,582.459045 434.252380,561.324829 
	C431.057556,561.324829 428.652405,561.324829 426.254456,561.324829 
	C425.733032,565.464233 425.254578,569.262390 424.704895,573.958008 
M298.600037,471.054169 
	C296.761810,472.558685 294.923584,474.063232 292.286224,476.221863 
	C293.411530,466.462982 294.410339,457.801331 295.394592,449.266144 
	C292.277313,449.266144 289.726746,449.266144 287.237030,449.266144 
	C284.682739,470.644409 282.179962,491.591705 279.658691,512.693909 
	C282.652344,512.693909 285.200470,512.693909 287.843811,512.693909 
	C288.645386,505.571899 289.186157,498.753082 290.234589,492.013214 
	C291.303406,485.142426 294.726654,479.440460 300.730347,475.757751 
	C306.250977,472.371429 310.224731,474.702972 310.245300,481.141876 
	C310.253723,483.792938 309.866119,486.450745 309.575165,489.096252 
	C308.709961,496.963287 307.803345,504.825806 306.901489,512.791077 
	C309.979584,512.791077 312.408447,512.791077 315.056122,512.791077 
	C316.198914,502.975006 317.315857,493.385376 318.430634,483.795471 
	C318.507538,483.133850 318.610352,482.471619 318.630371,481.807587 
	C318.975433,470.369232 311.428558,465.202240 301.037964,469.761719 
	C300.430573,470.028259 299.854492,470.366241 298.600037,471.054169 
M175.300705,580.200806 
	C157.537338,578.829224 142.881760,596.707520 145.760208,614.655151 
	C147.567566,625.924377 157.332886,629.821655 166.343887,622.765808 
	C168.342270,621.200989 170.086609,619.311768 172.191284,617.344482 
	C172.424942,625.850464 172.424942,625.850464 179.301071,624.556702 
	C181.018753,610.673462 182.747849,596.697754 184.541153,582.203308 
	C181.549942,581.495056 178.862854,580.858765 175.300705,580.200806 
M178.140839,502.007660 
	C178.938553,507.201111 180.734482,511.962463 186.260468,513.527466 
	C194.543900,515.873352 199.736374,510.450165 204.866669,504.601959 
	C205.063873,513.639648 205.063873,513.639648 211.814194,512.490234 
	C213.531372,498.556366 215.253983,484.578430 217.161957,469.096436 
	C211.432404,468.901703 205.907043,467.669525 200.870529,468.739197 
	C185.966125,471.904633 177.387253,484.657349 178.140839,502.007660 
M354.560394,618.201660 
	C355.027313,613.735535 355.290680,609.236450 356.006836,604.810669 
	C357.202454,597.422546 360.748688,591.314026 367.317841,587.494385 
	C372.090973,584.719055 375.988098,587.046570 376.129425,592.554504 
	C376.205750,595.527954 375.838257,598.524292 375.519989,601.494202 
	C374.680542,609.327271 373.758545,617.151428 372.883850,624.852173 
	C376.098877,624.852173 378.506134,624.852173 381.022156,624.852173 
	C381.895691,617.413635 382.837067,610.328247 383.522675,603.218140 
	C383.951355,598.772339 384.604095,594.216125 384.078278,589.838928 
	C383.117859,581.844299 376.648102,578.090271 369.164337,581.061035 
	C366.030762,582.304993 363.375397,584.781189 360.555511,586.772095 
	C359.618286,587.433777 358.846222,588.329224 357.673676,589.420288 
	C357.608124,580.610352 357.608124,580.610352 350.716949,581.352539 
	C349.012482,595.752869 347.300629,610.215698 345.568512,624.849426 
	C348.584259,624.849426 351.119812,624.849426 353.667999,624.849426 
	C353.948029,622.690430 354.181976,620.886780 354.560394,618.201660 
M333.661316,583.746277 
	C326.780365,578.717041 319.681030,579.079712 312.662262,583.236023 
	C302.458099,589.278442 297.251831,605.962585 302.135864,616.794800 
	C304.747253,622.586609 309.275635,625.813293 315.760712,626.022583 
	C325.073761,626.323181 332.978790,621.475281 336.839111,612.220886 
	C340.860016,602.581421 342.120575,592.896729 333.661316,583.746277 
M338.245026,493.804199 
	C343.953400,492.164612 349.819794,490.927094 355.322388,488.763977 
	C360.119568,486.878235 362.182129,482.596893 361.617157,477.419006 
	C361.122040,472.881378 356.964783,468.881317 351.720856,468.242523 
	C348.997711,467.910736 346.014496,468.091827 343.388062,468.859741 
	C329.769958,472.841339 320.981415,491.823303 327.286346,504.563019 
	C329.011047,508.047943 332.792236,511.294067 336.407227,512.904907 
	C344.308624,516.425598 353.855652,512.898926 360.233398,505.233429 
	C358.104523,500.220367 355.514374,502.371307 352.575562,504.539703 
	C348.537567,507.519196 344.068939,509.029999 339.051483,506.912292 
	C335.121918,505.253723 334.233978,501.843567 333.635010,498.063263 
	C333.128510,494.866577 334.463501,493.797882 338.245026,493.804199 
M197.785873,606.853210 
	C198.831818,610.701294 199.629227,614.640564 200.998489,618.369934 
	C202.199631,621.641418 201.768539,624.291565 199.964035,627.191711 
	C197.464325,631.209106 195.369873,635.478699 192.738403,640.307373 
	C196.818512,639.796265 200.217026,641.484253 202.485657,636.958801 
	C211.345490,619.285400 220.579193,601.799500 229.649872,584.231506 
	C230.125870,583.309631 230.380020,582.273132 230.772690,581.193115 
	C223.302353,580.770264 223.325333,580.781616 220.268280,586.969055 
	C216.101089,595.403442 211.894592,603.818420 207.340820,612.973816 
	C205.025803,603.866272 202.931351,595.668640 200.859985,587.465088 
	C199.008255,580.131348 199.019501,580.128479 190.884308,581.549316 
	C193.122406,589.731628 195.355499,597.895630 197.785873,606.853210 
z"/>
<path fill="#E0E0E0" opacity="1.000000" stroke="none" 
	d="
M394.442810,133.602020 
	C395.793732,138.885178 397.969727,143.840637 397.985748,148.803040 
	C398.209076,218.119766 398.190887,287.437500 398.100067,356.754822 
	C398.077026,374.341187 386.522034,385.825470 368.843719,385.848083 
	C299.693024,385.936584 230.542114,385.926300 161.391373,385.856201 
	C143.311569,385.837891 131.863266,374.579193 131.837738,356.615997 
	C131.739182,287.298706 131.744919,217.981125 131.834290,148.663788 
	C131.857468,130.673660 143.458145,119.463318 161.906631,119.374352 
	C185.900574,119.258629 209.895493,119.344444 233.889984,119.344383 
	C278.379791,119.344284 322.869843,119.424622 367.359253,119.290710 
	C378.938385,119.255859 388.106445,123.205421 394.442810,133.602020 
M322.499817,382.344025 
	C338.828949,382.318024 355.158081,382.283417 371.487213,382.270782 
	C377.060211,382.266479 381.818359,380.329742 386.060638,376.713989 
	C392.880310,370.901428 394.722778,363.318542 394.714111,354.780334 
	C394.651825,293.293396 394.680908,231.806381 394.681061,170.319397 
	C394.681061,168.693970 394.681091,167.068542 394.681091,165.289093 
	C307.989410,165.289093 221.733948,165.289093 135.393600,165.289093 
	C135.322189,166.487854 135.211578,167.478897 135.211456,168.469955 
	C135.203751,231.289993 135.200562,294.110016 135.226044,356.930054 
	C135.226852,358.918488 135.336853,360.945801 135.726044,362.888855 
	C138.171188,375.095978 147.667252,382.312347 161.533661,382.323853 
	C214.855682,382.368103 268.177734,382.343170 322.499817,382.344025 
M298.499878,161.792267 
	C330.421143,161.792267 362.342407,161.792267 394.239777,161.792267 
	C394.239777,155.417145 394.808533,149.546890 394.043915,143.855804 
	C393.516266,139.928665 391.705505,135.876114 389.483215,132.534668 
	C384.403168,124.896233 376.599152,122.814888 367.746979,122.829231 
	C307.293671,122.927216 246.840149,122.878036 186.386688,122.882751 
	C177.227417,122.883461 168.067627,122.863609 158.909058,122.953529 
	C151.672012,123.024574 145.877197,126.018303 141.058853,131.471786 
	C133.145584,140.428131 135.580521,151.048218 135.260590,161.792267 
	C189.668869,161.792267 243.584351,161.792267 298.499878,161.792267 
z"/>
<path fill="#F3F3F3" opacity="1.000000" stroke="none" 
	d="
M160.648712,471.589355 
	C154.681549,481.251099 149.035614,490.671722 143.057037,499.876282 
	C141.880356,501.687958 139.490738,503.559662 137.527390,503.714417 
	C136.218781,503.817505 134.080948,501.166412 133.334839,499.332703 
	C129.513168,489.940308 126.026390,480.411682 122.412895,470.934387 
	C121.853325,469.466797 121.243553,468.018372 119.594734,466.746460 
	C117.713570,482.026794 115.832413,497.307098 113.924232,512.806885 
	C111.496704,512.806885 109.219467,512.806885 106.343468,512.806885 
	C108.859093,492.016479 111.364143,471.313507 113.861824,450.671478 
	C121.968567,449.102631 122.286865,449.293335 124.987961,456.465729 
	C129.543304,468.561768 134.130646,480.645752 139.004013,493.526367 
	C147.047043,480.494354 154.880219,468.257233 162.197433,455.718964 
	C165.059357,450.815002 168.392426,448.780609 174.353653,450.645386 
	C171.865219,471.130768 169.364304,491.718750 166.818329,512.677856 
	C164.482224,512.677856 162.099640,512.677856 159.248703,512.677856 
	C161.078674,497.547272 162.904114,482.454071 164.729553,467.360870 
	C164.383881,467.172119 164.038223,466.983368 163.692551,466.794617 
	C162.746170,468.287262 161.799789,469.779907 160.648712,471.589355 
z"/>
<path fill="#F4F4F4" opacity="1.000000" stroke="none" 
	d="
M103.888748,583.569824 
	C104.704102,576.354004 105.472755,569.587708 106.288658,562.405579 
	C113.620277,562.405579 120.758392,561.983215 127.820946,562.532471 
	C134.039886,563.016113 139.664047,565.637451 141.626877,572.253296 
	C143.825363,579.663452 142.185959,586.573547 136.609451,592.012451 
	C134.069611,594.489624 130.682556,596.098206 127.402771,598.285461 
	C131.971649,606.834717 136.696701,615.676208 141.510666,624.684021 
	C132.304123,625.975647 132.316422,625.969360 128.621719,618.760864 
	C126.195457,614.027100 123.439827,609.437378 121.357635,604.558716 
	C119.197235,599.496887 115.835312,597.905273 110.532967,599.475342 
	C109.478981,607.777222 108.414200,616.164185 107.310081,624.860962 
	C104.551514,624.860962 101.990585,624.860962 98.744347,624.860962 
	C100.444412,611.240479 102.143234,597.630005 103.888748,583.569824 
M122.050812,568.250427 
	C119.440689,568.250427 116.830566,568.250427 114.181328,568.250427 
	C113.196487,576.752258 112.281204,584.653687 111.366287,592.551880 
	C124.923355,594.345337 132.414795,590.477173 133.872589,581.040710 
	C135.017181,573.631653 131.923019,570.021057 122.050812,568.250427 
z"/>
<path fill="#F3F3F3" opacity="1.000000" stroke="none" 
	d="
M257.839539,615.620239 
	C258.680298,608.055969 259.731812,600.956360 260.120514,593.820740 
	C260.244934,591.535950 259.061157,587.569092 257.686462,587.182983 
	C255.509796,586.571655 252.059662,587.625916 250.223282,589.216431 
	C244.977707,593.759827 242.753113,600.029663 242.071457,606.882141 
	C241.479660,612.831299 240.767929,618.768494 240.083786,624.940308 
	C237.340561,624.940308 234.931747,624.940308 232.009827,624.940308 
	C233.735306,610.365723 235.430969,596.042969 237.125137,581.732849 
	C243.734680,580.028503 244.265594,580.530640 244.073135,587.722229 
	C248.202362,585.315918 252.289124,581.924622 256.977112,580.466919 
	C262.415253,578.775879 265.068115,581.486145 268.068878,589.675293 
	C269.239044,588.399536 270.149689,587.107300 271.340668,586.171936 
	C273.670013,584.342529 275.945862,582.209045 278.616547,581.094666 
	C286.418335,577.839417 293.172150,582.096863 292.953888,590.567932 
	C292.714386,599.862427 291.427582,609.130859 290.563202,618.407471 
	C290.378174,620.392944 290.047302,622.364746 289.725372,624.779785 
	C287.306305,624.779785 284.778137,624.779785 281.743622,624.779785 
	C282.667023,616.609680 283.624084,608.417236 284.502686,600.216431 
	C284.803711,597.406494 285.177765,594.562683 285.043610,591.757019 
	C284.803406,586.733337 281.555267,584.913940 277.219910,587.457642 
	C271.700867,590.695862 268.887695,595.943359 267.731354,602.067139 
	C267.021942,605.824036 266.622437,609.642944 266.172241,613.444458 
	C265.725159,617.220032 265.388885,621.008667 264.984314,624.985535 
	C262.284851,624.985535 259.850769,624.985535 256.806427,624.985535 
	C257.148529,621.895386 257.470917,618.983215 257.839539,615.620239 
z"/>
<path fill="#F3F3F3" opacity="1.000000" stroke="none" 
	d="
M263.049103,480.183716 
	C262.207214,487.252594 261.244781,493.848267 260.669617,500.477478 
	C260.486450,502.588715 260.636505,505.597168 261.919739,506.702667 
	C263.018433,507.649139 265.955750,506.467804 268.078308,506.214172 
	C268.550781,506.157715 269.016541,506.045044 269.876495,505.885803 
	C270.589966,507.268646 271.311707,508.667603 272.312469,510.607330 
	C269.341644,511.823181 266.863159,513.293213 264.194916,513.843933 
	C256.269104,515.479797 251.346649,510.807434 252.213242,502.513824 
	C253.126099,493.777161 254.321915,485.070038 255.426773,476.084290 
	C249.360794,476.084290 243.743332,476.084290 237.499161,476.084290 
	C236.746628,482.239166 235.985809,488.443634 235.231354,494.648895 
	C235.090652,495.806061 234.986725,496.967682 234.846588,498.124939 
	C233.627289,508.192963 234.362259,508.862213 243.935165,505.914368 
	C244.564926,507.284912 245.216980,508.704010 246.236496,510.922821 
	C242.688553,512.053467 239.666382,513.574097 236.518906,513.905762 
	C229.568909,514.638245 225.639343,510.868073 226.202255,503.868683 
	C226.934921,494.758362 228.231796,485.693420 229.323898,476.281342 
	C228.152786,476.134155 226.953766,476.233154 226.001923,475.795135 
	C225.008270,475.337799 223.605362,474.402557 223.557007,473.604980 
	C223.496719,472.610809 224.707932,470.611206 225.251526,470.651367 
	C231.118210,471.084686 231.192307,466.660034 232.090347,462.888062 
	C232.398178,461.595123 232.826614,460.310059 232.950195,458.997894 
	C233.320587,455.065033 235.157181,453.199066 239.826813,454.421509 
	C239.383362,459.258057 238.923325,464.275482 238.415863,469.810028 
	C243.874222,469.810028 249.001984,469.944550 254.110977,469.694855 
	C255.113876,469.645782 256.537872,468.286194 256.912354,467.228271 
	C257.905975,464.421417 258.415588,461.444885 259.147552,458.543396 
	C260.332947,453.844543 260.363129,453.834747 266.041656,454.607117 
	C265.514984,459.481415 264.985443,464.382355 264.397308,469.825226 
	C268.276886,469.825226 271.855438,469.825226 275.763000,469.825226 
	C275.401672,472.124542 275.128754,473.861267 274.813751,475.865784 
	C272.106232,475.865784 269.603180,476.057281 267.142181,475.817352 
	C264.070831,475.517853 262.810059,476.731598 263.049103,480.183716 
z"/>
<path fill="#F2F2F2" opacity="1.000000" stroke="none" 
	d="
M419.571899,490.680847 
	C417.172852,496.404297 414.621399,501.681396 412.832916,507.205536 
	C411.206085,512.230286 408.551605,514.399719 402.715546,512.452881 
	C400.899536,502.685883 399.005219,492.497711 396.861145,480.966461 
	C392.706085,490.605988 388.753021,498.842377 385.626526,507.381409 
	C383.758301,512.483887 380.978302,514.146423 375.585541,512.579224 
	C373.096985,498.373749 370.576141,483.983978 368.055634,469.596008 
	C375.989746,468.036926 376.030029,468.160095 377.052612,476.036896 
	C378.135986,484.381470 379.454193,492.695587 381.510254,501.139282 
	C385.474426,491.701172 389.374603,482.235168 393.468781,472.853790 
	C394.114838,471.373474 395.428436,469.536224 396.796997,469.148865 
	C400.061249,468.224945 402.305603,469.223755 402.866425,473.343323 
	C404.109680,482.475891 405.846130,491.541321 408.443573,500.776611 
	C411.805023,492.240021 415.458282,483.802856 418.414154,475.128052 
	C420.079926,470.239319 422.281708,467.555969 428.321442,469.515350 
	C425.480347,476.420105 422.616119,483.381104 419.571899,490.680847 
z"/>
<path fill="#F3F3F3" opacity="1.000000" stroke="none" 
	d="
M424.740540,573.509277 
	C425.254578,569.262390 425.733032,565.464233 426.254456,561.324829 
	C428.652405,561.324829 431.057556,561.324829 434.252380,561.324829 
	C431.691162,582.459045 429.125214,603.632385 426.547180,624.905518 
	C423.930969,624.905518 421.678619,624.905518 419.084290,624.905518 
	C419.084290,622.530457 419.084290,620.450317 419.084290,617.421631 
	C416.636810,619.539368 414.888367,621.162292 413.025970,622.641846 
	C408.667175,626.104614 403.768738,627.251526 398.554230,625.078613 
	C393.664673,623.041138 392.217468,618.641968 391.660675,613.774170 
	C390.717346,605.526978 392.471619,597.896423 396.805847,590.866638 
	C403.501343,580.006958 411.821289,577.701172 423.384857,583.816284 
	C423.841064,580.409302 424.272980,577.183655 424.740540,573.509277 
M418.214661,609.577454 
	C419.509430,604.654846 421.128082,599.789551 422.011200,594.794189 
	C422.963989,589.404602 418.426300,585.272339 412.982422,586.578674 
	C410.557465,587.160583 407.951447,588.614746 406.287628,590.451904 
	C400.036682,597.354065 398.561096,605.760559 400.307159,614.643372 
	C401.321198,619.802002 406.406250,621.667847 410.729858,618.382080 
	C413.550018,616.238892 415.535522,612.997437 418.214661,609.577454 
z"/>
<path fill="#F4F4F4" opacity="1.000000" stroke="none" 
	d="
M298.931946,470.862549 
	C299.854492,470.366241 300.430573,470.028259 301.037964,469.761719 
	C311.428558,465.202240 318.975433,470.369232 318.630371,481.807587 
	C318.610352,482.471619 318.507538,483.133850 318.430634,483.795471 
	C317.315857,493.385376 316.198914,502.975006 315.056122,512.791077 
	C312.408447,512.791077 309.979584,512.791077 306.901489,512.791077 
	C307.803345,504.825806 308.709961,496.963287 309.575165,489.096252 
	C309.866119,486.450745 310.253723,483.792938 310.245300,481.141876 
	C310.224731,474.702972 306.250977,472.371429 300.730347,475.757751 
	C294.726654,479.440460 291.303406,485.142426 290.234589,492.013214 
	C289.186157,498.753082 288.645386,505.571899 287.843811,512.693909 
	C285.200470,512.693909 282.652344,512.693909 279.658691,512.693909 
	C282.179962,491.591705 284.682739,470.644409 287.237030,449.266144 
	C289.726746,449.266144 292.277313,449.266144 295.394592,449.266144 
	C294.410339,457.801331 293.411530,466.462982 292.286224,476.221863 
	C294.923584,474.063232 296.761810,472.558685 298.931946,470.862549 
z"/>
<path fill="#F2F2F2" opacity="1.000000" stroke="none" 
	d="
M175.738235,580.211670 
	C178.862854,580.858765 181.549942,581.495056 184.541153,582.203308 
	C182.747849,596.697754 181.018753,610.673462 179.301071,624.556702 
	C172.424942,625.850464 172.424942,625.850464 172.191284,617.344482 
	C170.086609,619.311768 168.342270,621.200989 166.343887,622.765808 
	C157.332886,629.821655 147.567566,625.924377 145.760208,614.655151 
	C142.881760,596.707520 157.537338,578.829224 175.738235,580.211670 
M156.188919,597.986694 
	C155.467361,603.324402 153.928238,608.710449 154.240402,613.987000 
	C154.594940,619.979736 159.981354,621.818970 164.700470,618.026245 
	C166.714172,616.407837 168.351852,614.183960 169.765823,611.981873 
	C174.696579,604.302612 174.948120,595.514465 175.775528,586.861755 
	C167.704376,585.487244 161.703735,588.853333 156.188919,597.986694 
z"/>
<path fill="#F3F3F3" opacity="1.000000" stroke="none" 
	d="
M178.111908,501.565735 
	C177.387253,484.657349 185.966125,471.904633 200.870529,468.739197 
	C205.907043,467.669525 211.432404,468.901703 217.161957,469.096436 
	C215.253983,484.578430 213.531372,498.556366 211.814194,512.490234 
	C205.063873,513.639648 205.063873,513.639648 204.866669,504.601959 
	C199.736374,510.450165 194.543900,515.873352 186.260468,513.527466 
	C180.734482,511.962463 178.938553,507.201111 178.111908,501.565735 
M202.775391,499.146301 
	C207.199966,491.424377 207.573044,482.911591 208.230469,474.120697 
	C200.212845,473.902252 194.343033,476.769562 190.438553,483.009918 
	C186.329010,489.577911 184.216629,496.704285 187.413193,504.289276 
	C188.806793,507.596100 191.816284,509.274017 195.092911,506.985535 
	C197.854034,505.057007 199.976929,502.214722 202.775391,499.146301 
z"/>
<path fill="#F2F2F2" opacity="1.000000" stroke="none" 
	d="
M354.488159,618.642395 
	C354.181976,620.886780 353.948029,622.690430 353.667999,624.849426 
	C351.119812,624.849426 348.584259,624.849426 345.568512,624.849426 
	C347.300629,610.215698 349.012482,595.752869 350.716949,581.352539 
	C357.608124,580.610352 357.608124,580.610352 357.673676,589.420288 
	C358.846222,588.329224 359.618286,587.433777 360.555511,586.772095 
	C363.375397,584.781189 366.030762,582.304993 369.164337,581.061035 
	C376.648102,578.090271 383.117859,581.844299 384.078278,589.838928 
	C384.604095,594.216125 383.951355,598.772339 383.522675,603.218140 
	C382.837067,610.328247 381.895691,617.413635 381.022156,624.852173 
	C378.506134,624.852173 376.098877,624.852173 372.883850,624.852173 
	C373.758545,617.151428 374.680542,609.327271 375.519989,601.494202 
	C375.838257,598.524292 376.205750,595.527954 376.129425,592.554504 
	C375.988098,587.046570 372.090973,584.719055 367.317841,587.494385 
	C360.748688,591.314026 357.202454,597.422546 356.006836,604.810669 
	C355.290680,609.236450 355.027313,613.735535 354.488159,618.642395 
z"/>
<path fill="#F2F2F2" opacity="1.000000" stroke="none" 
	d="
M333.933929,583.990906 
	C342.120575,592.896729 340.860016,602.581421 336.839111,612.220886 
	C332.978790,621.475281 325.073761,626.323181 315.760712,626.022583 
	C309.275635,625.813293 304.747253,622.586609 302.135864,616.794800 
	C297.251831,605.962585 302.458099,589.278442 312.662262,583.236023 
	C319.681030,579.079712 326.780365,578.717041 333.933929,583.990906 
M317.067108,588.115295 
	C309.614960,593.588257 308.459259,601.501526 308.817902,609.888184 
	C308.994965,614.029297 310.190491,617.807495 314.711029,619.354492 
	C319.485687,620.988403 323.255768,619.127319 326.159424,615.531006 
	C330.902466,609.656555 332.308533,602.756348 331.279419,595.391968 
	C330.187347,587.577087 325.320618,584.892700 317.067108,588.115295 
z"/>
<path fill="#F3F3F3" opacity="1.000000" stroke="none" 
	d="
M337.801392,493.834320 
	C334.463501,493.797882 333.128510,494.866577 333.635010,498.063263 
	C334.233978,501.843567 335.121918,505.253723 339.051483,506.912292 
	C344.068939,509.029999 348.537567,507.519196 352.575562,504.539703 
	C355.514374,502.371307 358.104523,500.220367 360.233398,505.233429 
	C353.855652,512.898926 344.308624,516.425598 336.407227,512.904907 
	C332.792236,511.294067 329.011047,508.047943 327.286346,504.563019 
	C320.981415,491.823303 329.769958,472.841339 343.388062,468.859741 
	C346.014496,468.091827 348.997711,467.910736 351.720856,468.242523 
	C356.964783,468.881317 361.122040,472.881378 361.617157,477.419006 
	C362.182129,482.596893 360.119568,486.878235 355.322388,488.763977 
	C349.819794,490.927094 343.953400,492.164612 337.801392,493.834320 
M339.656708,478.147919 
	C337.787415,481.314392 335.918152,484.480835 334.048859,487.647308 
	C334.449005,488.172058 334.849152,488.696838 335.249298,489.221588 
	C340.380890,487.781281 345.725616,486.815491 350.534302,484.656128 
	C352.339874,483.845367 354.405304,479.393433 353.683197,478.143311 
	C352.545074,476.172974 349.198334,474.680511 346.698944,474.539520 
	C344.590027,474.420593 342.356628,476.510071 339.656708,478.147919 
z"/>
<path fill="#F3F3F3" opacity="1.000000" stroke="none" 
	d="
M197.687225,606.456421 
	C195.355499,597.895630 193.122406,589.731628 190.884308,581.549316 
	C199.019501,580.128479 199.008255,580.131348 200.859985,587.465088 
	C202.931351,595.668640 205.025803,603.866272 207.340820,612.973816 
	C211.894592,603.818420 216.101089,595.403442 220.268280,586.969055 
	C223.325333,580.781616 223.302353,580.770264 230.772690,581.193115 
	C230.380020,582.273132 230.125870,583.309631 229.649872,584.231506 
	C220.579193,601.799500 211.345490,619.285400 202.485657,636.958801 
	C200.217026,641.484253 196.818512,639.796265 192.738403,640.307373 
	C195.369873,635.478699 197.464325,631.209106 199.964035,627.191711 
	C201.768539,624.291565 202.199631,621.641418 200.998489,618.369934 
	C199.629227,614.640564 198.831818,610.701294 197.687225,606.456421 
z"/>
<path fill="#010101" opacity="1.000000" stroke="none" 
	d="
M321.999817,382.344055 
	C268.177734,382.343170 214.855682,382.368103 161.533661,382.323853 
	C147.667252,382.312347 138.171188,375.095978 135.726044,362.888855 
	C135.336853,360.945801 135.226852,358.918488 135.226044,356.930054 
	C135.200562,294.110016 135.203751,231.289993 135.211456,168.469955 
	C135.211578,167.478897 135.322189,166.487854 135.393600,165.289093 
	C221.733948,165.289093 307.989410,165.289093 394.681091,165.289093 
	C394.681091,167.068542 394.681061,168.693970 394.681061,170.319397 
	C394.680908,231.806381 394.651825,293.293396 394.714111,354.780334 
	C394.722778,363.318542 392.880310,370.901428 386.060638,376.713989 
	C381.818359,380.329742 377.060211,382.266479 371.487213,382.270782 
	C355.158081,382.283417 338.828949,382.318024 321.999817,382.344055 
M317.127411,248.372192 
	C323.799927,255.031616 330.472443,261.691040 337.242920,268.448242 
	C326.666595,279.035400 316.448364,289.264069 306.230133,299.492706 
	C306.692657,300.064880 307.155182,300.637054 307.617676,301.209198 
	C308.763580,300.667542 310.165222,300.384827 311.016174,299.544464 
	C320.493652,290.184998 329.850433,280.703186 339.328949,271.344757 
	C341.439728,269.260712 341.549469,267.663788 339.390289,265.534058 
	C330.025360,256.296967 320.791809,246.926575 311.410400,237.706543 
	C310.416412,236.729660 308.766144,236.420578 307.420349,235.801697 
	C307.037842,236.369629 306.655334,236.937576 306.272827,237.505508 
	C309.724335,240.961044 313.175812,244.416565 317.127411,248.372192 
M208.380768,284.119232 
	C203.170258,279.023712 197.959732,273.928162 191.429245,267.541779 
	C202.185532,256.929474 212.494385,246.758606 222.803238,236.587753 
	C221.049316,236.509125 219.494598,236.999420 218.461197,238.018402 
	C209.228989,247.121674 200.145447,256.376129 190.880920,265.445923 
	C188.602951,267.676025 188.368057,269.249512 190.733978,271.571075 
	C199.988678,280.652283 209.075821,289.904114 218.316940,298.999390 
	C219.370178,300.036041 221.001358,300.485474 222.364578,301.207184 
	C222.814499,300.643768 223.264435,300.080322 223.714371,299.516907 
	C218.769836,294.551025 213.825302,289.585175 208.380768,284.119232 
M259.247131,283.016571 
	C264.637146,267.553894 270.027161,252.091248 275.830994,235.441483 
	C270.446625,237.934723 249.604279,296.748169 251.934937,302.539948 
	C254.631042,295.491028 256.869049,289.639740 259.247131,283.016571 
z"/>
<path fill="#030303" opacity="1.000000" stroke="none" 
	d="
M297.999847,161.792267 
	C243.584351,161.792267 189.668869,161.792267 135.260590,161.792267 
	C135.580521,151.048218 133.145584,140.428131 141.058853,131.471786 
	C145.877197,126.018303 151.672012,123.024574 158.909058,122.953529 
	C168.067627,122.863609 177.227417,122.883461 186.386688,122.882751 
	C246.840149,122.878036 307.293671,122.927216 367.746979,122.829231 
	C376.599152,122.814888 384.403168,124.896233 389.483215,132.534668 
	C391.705505,135.876114 393.516266,139.928665 394.043915,143.855804 
	C394.808533,149.546890 394.239777,155.417145 394.239777,161.792267 
	C362.342407,161.792267 330.421143,161.792267 297.999847,161.792267 
M376.810730,137.866287 
	C371.766724,133.608917 367.041718,133.346970 363.087219,137.105469 
	C359.408081,140.602280 359.130493,146.286423 362.451019,150.132965 
	C365.498230,153.662903 371.341400,154.374039 375.098450,151.672195 
	C379.302155,148.649139 380.114746,143.626907 376.810730,137.866287 
M346.456329,145.114563 
	C346.146332,138.322052 343.356781,134.948547 337.762878,134.601379 
	C332.701721,134.287262 328.651886,137.486481 327.907196,142.387009 
	C327.148102,147.382324 329.962799,151.801453 334.701294,153.053955 
	C340.122894,154.487030 344.162903,151.983231 346.456329,145.114563 
M306.786224,134.780121 
	C301.914001,133.856995 298.305634,135.683350 296.109589,140.027298 
	C294.147430,143.908630 295.187469,147.508759 297.992126,150.548218 
	C300.776001,153.565155 304.844177,154.514374 307.974365,152.581802 
	C310.702698,150.897293 313.306152,147.433029 313.954620,144.334503 
	C314.880768,139.908844 311.930084,136.549240 306.786224,134.780121 
M166.515625,145.775665 
	C174.818924,145.775101 183.123367,145.842072 191.424286,145.701172 
	C192.669754,145.680038 193.898697,144.685638 195.135284,144.141464 
	C193.875122,143.459885 192.622696,142.203552 191.353607,142.186508 
	C179.897125,142.032608 168.437424,142.058060 156.979538,142.144089 
	C155.576385,142.154633 154.178253,142.830704 152.777786,143.198349 
	C156.821518,146.995102 161.339127,145.229187 166.515625,145.775665 
z"/>
<path fill="#060606" opacity="1.000000" stroke="none" 
	d="
M122.484833,568.254700 
	C131.923019,570.021057 135.017181,573.631653 133.872589,581.040710 
	C132.414795,590.477173 124.923355,594.345337 111.366287,592.551880 
	C112.281204,584.653687 113.196487,576.752258 114.181328,568.250427 
	C116.830566,568.250427 119.440689,568.250427 122.484833,568.254700 
z"/>
<path fill="#070707" opacity="1.000000" stroke="none" 
	d="
M418.054779,609.912720 
	C415.535522,612.997437 413.550018,616.238892 410.729858,618.382080 
	C406.406250,621.667847 401.321198,619.802002 400.307159,614.643372 
	C398.561096,605.760559 400.036682,597.354065 406.287628,590.451904 
	C407.951447,588.614746 410.557465,587.160583 412.982422,586.578674 
	C418.426300,585.272339 422.963989,589.404602 422.011200,594.794189 
	C421.128082,599.789551 419.509430,604.654846 418.054779,609.912720 
z"/>
<path fill="#060606" opacity="1.000000" stroke="none" 
	d="
M156.393600,597.662720 
	C161.703735,588.853333 167.704376,585.487244 175.775528,586.861755 
	C174.948120,595.514465 174.696579,604.302612 169.765823,611.981873 
	C168.351852,614.183960 166.714172,616.407837 164.700470,618.026245 
	C159.981354,621.818970 154.594940,619.979736 154.240402,613.987000 
	C153.928238,608.710449 155.467361,603.324402 156.393600,597.662720 
z"/>
<path fill="#070707" opacity="1.000000" stroke="none" 
	d="
M202.578873,499.461609 
	C199.976929,502.214722 197.854034,505.057007 195.092911,506.985535 
	C191.816284,509.274017 188.806793,507.596100 187.413193,504.289276 
	C184.216629,496.704285 186.329010,489.577911 190.438553,483.009918 
	C194.343033,476.769562 200.212845,473.902252 208.230469,474.120697 
	C207.573044,482.911591 207.199966,491.424377 202.578873,499.461609 
z"/>
<path fill="#050505" opacity="1.000000" stroke="none" 
	d="
M317.424469,587.924255 
	C325.320618,584.892700 330.187347,587.577087 331.279419,595.391968 
	C332.308533,602.756348 330.902466,609.656555 326.159424,615.531006 
	C323.255768,619.127319 319.485687,620.988403 314.711029,619.354492 
	C310.190491,617.807495 308.994965,614.029297 308.817902,609.888184 
	C308.459259,601.501526 309.614960,593.588257 317.424469,587.924255 
z"/>
<path fill="#0B0B0B" opacity="1.000000" stroke="none" 
	d="
M339.917511,477.884979 
	C342.356628,476.510071 344.590027,474.420593 346.698944,474.539520 
	C349.198334,474.680511 352.545074,476.172974 353.683197,478.143311 
	C354.405304,479.393433 352.339874,483.845367 350.534302,484.656128 
	C345.725616,486.815491 340.380890,487.781281 335.249298,489.221588 
	C334.849152,488.696838 334.449005,488.172058 334.048859,487.647308 
	C335.918152,484.480835 337.787415,481.314392 339.917511,477.884979 
z"/>
<path fill="#DDDDDD" opacity="1.000000" stroke="none" 
	d="
M316.877380,248.122147 
	C313.175812,244.416565 309.724335,240.961044 306.272827,237.505508 
	C306.655334,236.937576 307.037842,236.369629 307.420349,235.801697 
	C308.766144,236.420578 310.416412,236.729660 311.410400,237.706543 
	C320.791809,246.926575 330.025360,256.296967 339.390289,265.534058 
	C341.549469,267.663788 341.439728,269.260712 339.328949,271.344757 
	C329.850433,280.703186 320.493652,290.184998 311.016174,299.544464 
	C310.165222,300.384827 308.763580,300.667542 307.617676,301.209198 
	C307.155182,300.637054 306.692657,300.064880 306.230133,299.492706 
	C316.448364,289.264069 326.666595,279.035400 337.242920,268.448242 
	C330.472443,261.691040 323.799927,255.031616 316.877380,248.122147 
z"/>
<path fill="#E4E4E4" opacity="1.000000" stroke="none" 
	d="
M208.630768,284.369263 
	C213.825302,289.585175 218.769836,294.551025 223.714371,299.516907 
	C223.264435,300.080322 222.814499,300.643768 222.364578,301.207184 
	C221.001358,300.485474 219.370178,300.036041 218.316940,298.999390 
	C209.075821,289.904114 199.988678,280.652283 190.733978,271.571075 
	C188.368057,269.249512 188.602951,267.676025 190.880920,265.445923 
	C200.145447,256.376129 209.228989,247.121674 218.461197,238.018402 
	C219.494598,236.999420 221.049316,236.509125 222.803238,236.587753 
	C212.494385,246.758606 202.185532,256.929474 191.429245,267.541779 
	C197.959732,273.928162 203.170258,279.023712 208.630768,284.369263 
z"/>
<path fill="#DDDDDD" opacity="1.000000" stroke="none" 
	d="
M259.177094,283.402527 
	C256.869049,289.639740 254.631042,295.491028 251.934937,302.539948 
	C249.604279,296.748169 270.446625,237.934723 275.830994,235.441483 
	C270.027161,252.091248 264.637146,267.553894 259.177094,283.402527 
z"/>
<path fill="#E4E4E4" opacity="1.000000" stroke="none" 
	d="
M377.019165,138.189377 
	C380.114746,143.626907 379.302155,148.649139 375.098450,151.672195 
	C371.341400,154.374039 365.498230,153.662903 362.451019,150.132965 
	C359.130493,146.286423 359.408081,140.602280 363.087219,137.105469 
	C367.041718,133.346970 371.766724,133.608917 377.019165,138.189377 
M373.892273,139.407471 
	C371.146454,139.353134 368.121490,138.594177 365.766693,139.526962 
	C364.494568,140.030884 363.640839,143.515045 363.883789,145.497086 
	C364.316040,149.022781 368.205566,150.888290 371.527710,149.811127 
	C375.449158,148.539612 376.513367,144.855667 373.892273,139.407471 
z"/>
<path fill="#E7E7E7" opacity="1.000000" stroke="none" 
	d="
M346.386108,145.485138 
	C344.162903,151.983231 340.122894,154.487030 334.701294,153.053955 
	C329.962799,151.801453 327.148102,147.382324 327.907196,142.387009 
	C328.651886,137.486481 332.701721,134.287262 337.762878,134.601379 
	C343.356781,134.948547 346.146332,138.322052 346.386108,145.485138 
M336.665802,150.004974 
	C340.372620,150.065918 343.104584,148.222412 343.004822,144.630859 
	C342.944458,142.458084 341.211761,139.228760 339.417297,138.513229 
	C337.573273,137.777908 334.106873,138.832443 332.475128,140.329544 
	C329.320648,143.223724 331.031158,147.409210 336.665802,150.004974 
z"/>
<path fill="#E4E4E4" opacity="1.000000" stroke="none" 
	d="
M307.153046,134.862457 
	C311.930084,136.549240 314.880768,139.908844 313.954620,144.334503 
	C313.306152,147.433029 310.702698,150.897293 307.974365,152.581802 
	C304.844177,154.514374 300.776001,153.565155 297.992126,150.548218 
	C295.187469,147.508759 294.147430,143.908630 296.109589,140.027298 
	C298.305634,135.683350 301.914001,133.856995 307.153046,134.862457 
M305.331116,137.874756 
	C300.192657,138.618668 297.389526,141.337799 298.934448,145.024200 
	C299.820099,147.137512 302.724762,149.677689 304.731689,149.687317 
	C306.707855,149.696762 309.637115,147.124710 310.467682,145.021652 
	C311.797638,141.654129 309.713013,139.036545 305.331116,137.874756 
z"/>
<path fill="#CCCCCC" opacity="1.000000" stroke="none" 
	d="
M166.019409,145.775650 
	C161.339127,145.229187 156.821518,146.995102 152.777786,143.198349 
	C154.178253,142.830704 155.576385,142.154633 156.979538,142.144089 
	C168.437424,142.058060 179.897125,142.032608 191.353607,142.186508 
	C192.622696,142.203552 193.875122,143.459885 195.135284,144.141464 
	C193.898697,144.685638 192.669754,145.680038 191.424286,145.701172 
	C183.123367,145.842072 174.818924,145.775101 166.019409,145.775650 
z"/>
<path fill="#0F0F0F" opacity="1.000000" stroke="none" 
	d="
M374.121582,139.722778 
	C376.513367,144.855667 375.449158,148.539612 371.527710,149.811127 
	C368.205566,150.888290 364.316040,149.022781 363.883789,145.497086 
	C363.640839,143.515045 364.494568,140.030884 365.766693,139.526962 
	C368.121490,138.594177 371.146454,139.353134 374.121582,139.722778 
z"/>
<path fill="#0B0B0B" opacity="1.000000" stroke="none" 
	d="
M336.270447,149.986908 
	C331.031158,147.409210 329.320648,143.223724 332.475128,140.329544 
	C334.106873,138.832443 337.573273,137.777908 339.417297,138.513229 
	C341.211761,139.228760 342.944458,142.458084 343.004822,144.630859 
	C343.104584,148.222412 340.372620,150.065918 336.270447,149.986908 
z"/>
<path fill="#0F0F0F" opacity="1.000000" stroke="none" 
	d="
M305.728180,137.931503 
	C309.713013,139.036545 311.797638,141.654129 310.467682,145.021652 
	C309.637115,147.124710 306.707855,149.696762 304.731689,149.687317 
	C302.724762,149.677689 299.820099,147.137512 298.934448,145.024200 
	C297.389526,141.337799 300.192657,138.618668 305.728180,137.931503 
z"/>
</svg>